<?xml version="1.0" encoding="UTF-8" standalone="no" ?>
<!DOCTYPE svg PUBLIC "-//W3C//DTD SVG 1.1//EN" "http://www.w3.org/Graphics/SVG/1.1/DTD/svg11.dtd">
<svg xmlns="http://www.w3.org/2000/svg" xmlns:xlink="http://www.w3.org/1999/xlink" version="1.1" width="1000" height="1000" viewBox="0 0 1000 1000" xml:space="preserve">
<desc>Created with Fabric.js 5.3.0</desc>
<defs>
</defs>
<g transform="matrix(-1 0 0 -1 500 499.4588744589)" id="OT53iD2bywCHpifrgnMfo"  >
<g style=""   >
		<g transform="matrix(1.8905422174 0 0 1.8905422174 -97.9437241266 97.4025985854)" id="l8kar7RCYy_Kay12KP7jl"  >
<path style="stroke: rgb(128,128,128); stroke-width: 20; stroke-dasharray: none; stroke-linecap: butt; stroke-dashoffset: 0; stroke-linejoin: miter; stroke-miterlimit: 4; fill: none; fill-rule: nonzero; opacity: 1;"  transform=" translate(0, 0)" d="M -202.38095 -116.51798 C -202.38095 -163.93878999999998 -163.93879 -202.38094999999998 -116.51798000000001 -202.38094999999998 L -98.74855000000001 -202.38094999999998 L -98.73570000000001 12.545510000000007 L -98.73570000000001 12.545510000000007 C -98.73287 59.908480000000004 -60.481570000000005 98.37856000000001 -13.119380000000007 98.65152 L 202.38096 99.89347000000001 L 202.38096 116.51799000000001 L 202.38096 116.51799000000001 C 202.38096 163.93880000000001 163.9388 202.38096000000002 116.51798999999998 202.38096000000002 L -116.51798000000001 202.38096000000002 L -116.51798000000001 202.38096000000002 C -163.93879 202.38096000000002 -202.38095 163.93880000000001 -202.38095 116.51799000000001 z" stroke-linecap="round" />
</g>
		<g transform="matrix(1.8905422174 0 0 1.8905422174 97.9437128596 -97.4025873185)" id="ruMJrI-58_ixwibAYTnqP"  >
<path style="stroke: rgb(128,128,128); stroke-width: 20; stroke-dasharray: none; stroke-linecap: butt; stroke-dashoffset: 0; stroke-linejoin: miter; stroke-miterlimit: 4; fill: none; fill-rule: nonzero; opacity: 1;"  transform=" translate(-0.000005, -0.000005)" d="M -202.38095 -116.51798 C -202.38095 -163.93878999999998 -163.93879 -202.38094999999998 -116.51798000000001 -202.38094999999998 L 116.51798999999998 -202.38094999999998 L 116.51798999999998 -202.38094999999998 C 163.9388 -202.38094999999998 202.38096 -163.93878999999998 202.38096 -116.51797999999998 L 202.38096 116.51799000000001 L 202.38096 116.51799000000001 C 202.38096 163.93880000000001 163.9388 202.38096000000002 116.51798999999998 202.38096000000002 L -116.51798000000001 202.38096000000002 L -116.51798000000001 202.38096000000002 C -163.93879 202.38096000000002 -202.38095 163.93880000000001 -202.38095 116.51799000000001 z" stroke-linecap="round" />
</g>
</g>
</g>
</svg>