<?xml version="1.0" encoding="UTF-8" standalone="no" ?>
<!DOCTYPE svg PUBLIC "-//W3C//DTD SVG 1.1//EN" "http://www.w3.org/Graphics/SVG/1.1/DTD/svg11.dtd">
<svg xmlns="http://www.w3.org/2000/svg" xmlns:xlink="http://www.w3.org/1999/xlink" version="1.1" width="512" height="512" viewBox="0 0 512 512" xml:space="preserve">
<desc>Created with Fabric.js 5.3.0</desc>
<defs>
</defs>
<g transform="matrix(2.3426395908 0 0 2.3426395908 256 256)" id="lbJ_LaqOsBPzXT-3s5VUz"  >
<path style="stroke: rgb(58,71,177); stroke-width: 0; stroke-dasharray: none; stroke-linecap: butt; stroke-dashoffset: 0; stroke-linejoin: miter; stroke-miterlimit: 4; fill: rgb(255,255,255); fill-rule: nonzero; opacity: 1;"  transform=" translate(0, 0)" d="M -109.16017 -109.16017 L 109.16017 -109.16017 L 109.16017 109.16017 L -109.16017 109.16017 z" stroke-linecap="round" />
</g>
<g transform="matrix(1 0 0 1 256 256)" id="ULWJZLA5CAOaY0_lr3nFF"  >
<g style=""   >
		<g transform="matrix(2.3824545755 0 0 0.4204331532 11.1123138063 182.9536615308)" id="t4kirdf1PZ2SwRuIl7mtB"  >
<path style="stroke: rgb(231,222,181); stroke-width: 0; stroke-dasharray: none; stroke-linecap: butt; stroke-dashoffset: 0; stroke-linejoin: miter; stroke-miterlimit: 4; fill: rgb(86,79,79); fill-rule: nonzero; opacity: 1;"  transform=" translate(0, 0)" d="M -8.24 -85.91 C 42.809999999999995 -85.91 100.71000000000001 -63.449999999999996 100.71000000000001 -12.399999999999991 C 100.71000000000001 38.64000000000001 42.81000000000001 85.91000000000001 -8.239999999999995 85.91000000000001 C -59.28999999999999 85.91000000000001 -100.71 57.610000000000014 -100.71 6.570000000000007 C -100.71 -44.47999999999999 -59.28999999999999 -85.91 -8.239999999999995 -85.91 z" stroke-linecap="round" />
</g>
		<g transform="matrix(0.4610394432 0 0 0.4610394432 188.1755766633 48.0678990283)" id="utXMMg8EA-A2rgIanfy_r"  >
<path style="stroke: rgb(0,0,0); stroke-width: 1; stroke-dasharray: none; stroke-linecap: butt; stroke-dashoffset: 0; stroke-linejoin: miter; stroke-miterlimit: 4; fill: rgb(148,149,131); fill-rule: nonzero; opacity: 1;"  transform=" translate(-0.0003561028, 0.0011316545)" d="M -51.07 -125.61 C -51.07 -125.61 -21.92 -153.6 11.490000000000002 -166.38 C 40.77 -177.59 74.16 -173.87 82.94 -173.09 C 103.12 -171.29 118.82 -155.51 123.24 -149.01 C 137.81 -127.57999999999998 129.13 -40.639999999999986 77.16999999999999 38.35000000000002 C 25.889999999999986 116.30000000000003 -61.79000000000002 162.63000000000002 -84.33000000000001 170.67000000000002 C -122.86000000000001 184.42000000000002 -129.57000000000002 154.72000000000003 -129.57000000000002 154.72000000000003 L -92.96000000000002 93.52000000000002 C -92.96000000000002 93.52000000000002 -80.50000000000003 108.81000000000003 -51.07000000000002 93.52000000000002 C -36.87000000000002 86.14000000000003 21.279999999999973 43.800000000000026 51.40999999999998 -6.809999999999974 C 65.36999999999998 -30.249999999999975 92.80999999999997 -91.45999999999998 82.93999999999998 -112.64999999999998 C 72.67999999999998 -134.67 24.569999999999986 -116.12999999999998 11.48999999999998 -110.09999999999998 C -23.43000000000002 -93.98999999999998 -51.07000000000002 -60.32999999999998 -51.07000000000002 -60.32999999999998 L -51.07000000000002 -125.60999999999999 z" stroke-linecap="round" />
</g>
		<g transform="matrix(0.4610394432 0 0 0.4610394432 -42.254035971 49.6717147939)" id="GUQYNlV7PEmG_LYri_Bra"  >
<path style="stroke: rgb(0,0,0); stroke-width: 1; stroke-dasharray: none; stroke-linecap: butt; stroke-dashoffset: 0; stroke-linejoin: miter; stroke-miterlimit: 4; fill: rgb(163,152,133); fill-rule: nonzero; opacity: 1;"  transform=" translate(-0.0025581035, 0.0000441808)" d="M 342.87 -238.76 C 283.44 -228.64999999999998 208.36 -231.45 208.36 -231.45 C 208.36 -231.45 191.48000000000002 -204.72 161.75 -194.16 C 132.03 -183.6 108.68 -183.28 90.78 -186.56 C 50.08 -194.02 57.54 -254.61 57.54 -254.61 L -216.6 -270.57 C -216.6 -270.57 -271.61 -232.82 -306.78999999999996 -238.76 C -320.78999999999996 -241.12 -339.63 -244.28 -347.63 -254.60999999999999 C -359.71999999999997 -270.21999999999997 -357.3 -294.32 -357.3 -294.32 L -410.81 -337.1 C -410.81 -337.1 -506.95 -64.64000000000004 -410.81 103.00999999999999 C -362.48 187.31 -302.5 240.09 -206.37 297.71 C -110.23 355.33 95.12 344.87 190.92000000000002 297.71 C 286.71000000000004 250.53999999999996 325.72 207.96999999999997 372.87 147.51 C 490.63 -3.5100000000000193 444.74 -277.23 444.74 -277.23 C 444.74 -277.23 402.29 -248.87 342.87 -238.76000000000002 z" stroke-linecap="round" />
</g>
		<g transform="matrix(0.4610394432 0 0 0.4610394432 -66.6754117303 -32.7453195007)" id="SaBtbFiiXtIsIl8HMphQY"  >
<path style="stroke: rgb(0,0,0); stroke-width: 1; stroke-dasharray: none; stroke-linecap: butt; stroke-dashoffset: 0; stroke-linejoin: miter; stroke-miterlimit: 4; fill: rgb(220,204,204); fill-rule: nonzero; opacity: 1;"  transform=" translate(0, 0)" d="M 205.52 -11.56 C 178.85000000000002 -1.8200000000000003 160.44 -7.800000000000001 141.8 -11.56 C 99.51000000000002 -20.08 112.17000000000002 -75.84 112.17000000000002 -75.84 L -163.05 -94.93 C -163.05 -94.93 -208.95000000000002 -58.660000000000004 -249.54000000000002 -61.21000000000001 C -264.1 -62.120000000000005 -288.33000000000004 -66.23 -294.65000000000003 -75.84 C -305.96000000000004 -93.04 -305.46000000000004 -115.76 -305.46000000000004 -115.76 L -394.42 47.89999999999999 L 311.93 115.75999999999999 L 394.42 -54.55000000000001 L 270.68 -61.21000000000001 C 270.68 -61.21000000000001 239.35000000000002 -23.900000000000006 205.52 -11.56000000000001 z" stroke-linecap="round" />
</g>
		<g transform="matrix(0.4610394432 0 0 0.4610394432 -209.5134184776 -102.6251588627)" id="IkVU4f2vi0IaxrDKb6-eZ"  >
<path style="stroke: rgb(0,0,0); stroke-width: 1; stroke-dasharray: none; stroke-linecap: butt; stroke-dashoffset: 0; stroke-linejoin: miter; stroke-miterlimit: 4; fill: rgb(135,124,100); fill-rule: nonzero; opacity: 1;"  transform=" translate(0, 0.0004206075)" d="M 47.78 -32.05 C 47.78 -32.05 18.07 -35.599999999999994 -5.8799999999999955 -29.949999999999996 C -29.839999999999996 -24.289999999999996 -47.779999999999994 -6.919999999999995 -47.779999999999994 -6.919999999999995 L 2.5400000000000063 33.150000000000006 L 47.78000000000001 -32.05 z" stroke-linecap="round" />
</g>
		<g transform="matrix(0.4610394432 0 0 0.4610394432 145.3156129966 -77.597889113)" id="3KL0x2b_Ze7SyHnfafBfu"  >
<path style="stroke: rgb(0,0,0); stroke-width: 1; stroke-dasharray: none; stroke-linecap: butt; stroke-dashoffset: 0; stroke-linejoin: miter; stroke-miterlimit: 4; fill: rgb(146,132,98); fill-rule: nonzero; opacity: 1;"  transform=" translate(0, 0)" d="M -18.68 -31.2 C -18.68 -31.2 5.16 -22.5 19 -15.18 C 32.84 -7.85 37.42 -1.1500000000000004 37.42 -1.1500000000000004 C 37.42 -1.1500000000000004 25.6 6.6899999999999995 7.640000000000001 15.339999999999998 C -10.32 23.99 -37.42 31.199999999999996 -37.42 31.199999999999996 C -37.42 31.199999999999996 -21.040000000000003 23.919999999999995 -14.190000000000001 19.129999999999995 C -7.340000000000002 14.349999999999994 -3.6000000000000014 8.849999999999996 -3.6000000000000014 8.849999999999996 L -18.68 -31.200000000000003 z" stroke-linecap="round" />
</g>
		<g transform="matrix(0.4332353627 0.1576847765 -0.1499860469 0.4120832771 -218.3493006962 -55.3711997939)" id="OA_XbL81I9A5TTyq8s1z2"  >
<path style="stroke: rgb(20,10,246); stroke-width: 0; stroke-dasharray: none; stroke-linecap: butt; stroke-dashoffset: 0; stroke-linejoin: miter; stroke-miterlimit: 4; fill: rgb(0,0,0); fill-rule: nonzero; opacity: 1;"  transform=" translate(0, 0)" d="M -0.49 -74.48 L 21.930000000000003 -75.91000000000001 L 1.480000000000004 73.37999999999998 L -21.929999999999996 75.90999999999998 L -0.4899999999999949 -74.48 z" stroke-linecap="round" />
</g>
		<g transform="matrix(0.6206733011 0.2259065951 -0.1499861017 0.4120834064 -203.2445084307 -53.8158932868)" id="xQITlZGmtuYyJzGIE3nFd"  >
<path style="stroke: rgb(20,10,246); stroke-width: 0; stroke-dasharray: none; stroke-linecap: butt; stroke-dashoffset: 0; stroke-linejoin: miter; stroke-miterlimit: 4; fill: rgb(255,255,255); fill-rule: nonzero; opacity: 1;"  transform=" translate(0, 0)" d="M -6.34 -69.12 L 22.31 -78.27000000000001 L 4.879999999999999 65.78 L -22.310000000000002 78.27 L -6.340000000000002 -69.11999999999999 z" stroke-linecap="round" />
</g>
		<g transform="matrix(0.4332355211 0.1576848259 -0.1499861017 0.4120834064 -189.8003240193 -50.7608056641)" id="yUz8QrSEKlx2d99WR0m2I"  >
<path style="stroke: rgb(20,10,246); stroke-width: 0; stroke-dasharray: none; stroke-linecap: butt; stroke-dashoffset: 0; stroke-linejoin: miter; stroke-miterlimit: 4; fill: rgb(0,0,0); fill-rule: nonzero; opacity: 1;"  transform=" translate(0, 0)" d="M -0.49 -74.48 L 21.930000000000003 -75.91000000000001 L 1.480000000000004 73.37999999999998 L -21.929999999999996 75.90999999999998 L -0.4899999999999949 -74.48 z" stroke-linecap="round" />
</g>
		<g transform="matrix(0.6206733011 0.2259065951 -0.1499861017 0.4120834064 -174.6955281334 -49.2054988543)" id="-GMgFTrwEo0gEIP4NufNR"  >
<path style="stroke: rgb(20,10,246); stroke-width: 0; stroke-dasharray: none; stroke-linecap: butt; stroke-dashoffset: 0; stroke-linejoin: miter; stroke-miterlimit: 4; fill: rgb(255,255,255); fill-rule: nonzero; opacity: 1;"  transform=" translate(0, 0)" d="M -6.34 -69.12 L 22.31 -78.27000000000001 L 4.879999999999999 65.78 L -22.310000000000002 78.27 L -6.340000000000002 -69.11999999999999 z" stroke-linecap="round" />
</g>
		<g transform="matrix(0.4332355211 0.1576848259 -0.1499861017 0.4120834064 -161.1331272572 -48.3965010553)" id="iKMmL0z2QOwXyIHGTfyWP"  >
<path style="stroke: rgb(20,10,246); stroke-width: 0; stroke-dasharray: none; stroke-linecap: butt; stroke-dashoffset: 0; stroke-linejoin: miter; stroke-miterlimit: 4; fill: rgb(0,0,0); fill-rule: nonzero; opacity: 1;"  transform=" translate(0, 0)" d="M -0.49 -74.48 L 21.930000000000003 -75.91000000000001 L -0.5999999999999979 71.30999999999999 L -21.929999999999996 75.90999999999998 L -0.4899999999999949 -74.48 z" stroke-linecap="round" />
</g>
		<g transform="matrix(0.6206733011 0.2259065951 -0.1499861017 0.4120834064 -146.3238718293 -47.1367355401)" id="KY2Dj07oK2cg_ONJ5Qf_N"  >
<path style="stroke: rgb(20,10,246); stroke-width: 0; stroke-dasharray: none; stroke-linecap: butt; stroke-dashoffset: 0; stroke-linejoin: miter; stroke-miterlimit: 4; fill: rgb(255,255,255); fill-rule: nonzero; opacity: 1;"  transform=" translate(0, 0)" d="M -6.34 -69.12 L 22.31 -78.27000000000001 L 7.399999999999999 64.39999999999998 L -22.310000000000002 78.26999999999998 L -6.340000000000002 -69.12 z" stroke-linecap="round" />
</g>
		<g transform="matrix(0.4332355211 0.1576848259 -0.1735261834 0.4767592525 -129.0240431674 -48.9910441471)" id="GChUkru5sFxQVhUlM8G8T"  >
<path style="stroke: rgb(20,10,246); stroke-width: 0; stroke-dasharray: none; stroke-linecap: butt; stroke-dashoffset: 0; stroke-linejoin: miter; stroke-miterlimit: 4; fill: rgb(0,0,0); fill-rule: nonzero; opacity: 1;"  transform=" translate(0, 0)" d="M -2.3 -73.88 L 23.74 -76.50999999999999 L 0 71.39000000000001 L -23.74 76.51000000000002 L -2.299999999999997 -73.87999999999997 z" stroke-linecap="round" />
</g>
		<g transform="matrix(0.6206733011 0.2259065951 -0.173718721 0.4772882455 -114.4396782837 -47.9253715632)" id="Gyr_5c5slxVoCp1lV-kdY"  >
<path style="stroke: rgb(20,10,246); stroke-width: 0; stroke-dasharray: none; stroke-linecap: butt; stroke-dashoffset: 0; stroke-linejoin: miter; stroke-miterlimit: 4; fill: rgb(255,255,255); fill-rule: nonzero; opacity: 1;"  transform=" translate(0, 0)" d="M -6.34 -69.12 L 22.31 -78.27000000000001 L 4.879999999999999 65.78 L -22.310000000000002 78.27 L -6.340000000000002 -69.11999999999999 z" stroke-linecap="round" />
</g>
		<g transform="matrix(0.4332355211 0.1576848259 -0.1735261834 0.4767592525 -101.3616772114 -46.1538783425)" id="4xQg83GRVcdRXXUu8mmmZ"  >
<path style="stroke: rgb(20,10,246); stroke-width: 0; stroke-dasharray: none; stroke-linecap: butt; stroke-dashoffset: 0; stroke-linejoin: miter; stroke-miterlimit: 4; fill: rgb(0,0,0); fill-rule: nonzero; opacity: 1;"  transform=" translate(0, 0)" d="M -2.3 -73.88 L 23.74 -76.50999999999999 L 0 71.39000000000001 L -23.74 76.51000000000002 L -2.299999999999997 -73.87999999999997 z" stroke-linecap="round" />
</g>
		<g transform="matrix(0.6206733011 0.2259065951 -0.173718721 0.4772882455 -86.4817742231 -45.0882057586)" id="xk8qNRlRyGdcFa0ZPq-wK"  >
<path style="stroke: rgb(20,10,246); stroke-width: 0; stroke-dasharray: none; stroke-linecap: butt; stroke-dashoffset: 0; stroke-linejoin: miter; stroke-miterlimit: 4; fill: rgb(255,255,255); fill-rule: nonzero; opacity: 1;"  transform=" translate(0, 0)" d="M -6.34 -69.12 L 22.31 -78.27000000000001 L 4.879999999999999 65.78 L -22.310000000000002 78.27 L -6.340000000000002 -69.11999999999999 z" stroke-linecap="round" />
</g>
		<g transform="matrix(0.4332355211 0.1576848259 -0.1735261834 0.4767592525 -72.3989423747 -44.0851119208)" id="EYvi707LQ6tCpzWHxMp2z"  >
<path style="stroke: rgb(20,10,246); stroke-width: 0; stroke-dasharray: none; stroke-linecap: butt; stroke-dashoffset: 0; stroke-linejoin: miter; stroke-miterlimit: 4; fill: rgb(0,0,0); fill-rule: nonzero; opacity: 1;"  transform=" translate(0, 0)" d="M -2.3 -73.88 L 23.74 -76.50999999999999 L -0.33000000000000185 73.98000000000002 L -23.740000000000002 76.51000000000002 L -2.3000000000000007 -73.87999999999997 z" stroke-linecap="round" />
</g>
		<g transform="matrix(0.6206733011 0.2259065951 -0.173718721 0.4772882455 -57.814577491 -43.019439337)" id="__w40_-obpoLT-M63mU3I"  >
<path style="stroke: rgb(20,10,246); stroke-width: 0; stroke-dasharray: none; stroke-linecap: butt; stroke-dashoffset: 0; stroke-linejoin: miter; stroke-miterlimit: 4; fill: rgb(255,255,255); fill-rule: nonzero; opacity: 1;"  transform=" translate(0, 0)" d="M -6.34 -69.12 L 22.31 -78.27000000000001 L 4.879999999999999 65.78 L -22.310000000000002 78.27 L -6.340000000000002 -69.11999999999999 z" stroke-linecap="round" />
</g>
		<g transform="matrix(0.4332355211 0.1576848259 -0.1735261834 0.4767592525 -44.4410383141 -41.2479461162)" id="vKilZ3WthpJM_yJ9DGVce"  >
<path style="stroke: rgb(20,10,246); stroke-width: 0; stroke-dasharray: none; stroke-linecap: butt; stroke-dashoffset: 0; stroke-linejoin: miter; stroke-miterlimit: 4; fill: rgb(0,0,0); fill-rule: nonzero; opacity: 1;"  transform=" translate(0, 0)" d="M -2.3 -73.88 L 23.74 -76.50999999999999 L -0.33000000000000185 73.98000000000002 L -23.740000000000002 76.51000000000002 L -2.3000000000000007 -73.87999999999997 z" stroke-linecap="round" />
</g>
		<g transform="matrix(0.6206733011 0.2259065951 -0.173718721 0.4772882455 -29.8566734304 -40.1822735323)" id="89CoPTBtkmpYy5-NwhTNx"  >
<path style="stroke: rgb(20,10,246); stroke-width: 0; stroke-dasharray: none; stroke-linecap: butt; stroke-dashoffset: 0; stroke-linejoin: miter; stroke-miterlimit: 4; fill: rgb(255,255,255); fill-rule: nonzero; opacity: 1;"  transform=" translate(0, 0)" d="M -6.34 -69.12 L 22.31 -78.27000000000001 L 4.879999999999999 65.78 L -22.310000000000002 78.27 L -6.340000000000002 -69.11999999999999 z" stroke-linecap="round" />
</g>
		<g transform="matrix(0.4332355211 0.1576848259 -0.1735261834 0.4767592525 -15.4783034198 -40.0657936976)" id="Lnf5GYYKz64SPvQSihu8S"  >
<path style="stroke: rgb(20,10,246); stroke-width: 0; stroke-dasharray: none; stroke-linecap: butt; stroke-dashoffset: 0; stroke-linejoin: miter; stroke-miterlimit: 4; fill: rgb(0,0,0); fill-rule: nonzero; opacity: 1;"  transform=" translate(0, 0)" d="M -2.3 -73.88 L 23.74 -76.50999999999999 L -0.33000000000000185 73.98000000000002 L -23.740000000000002 76.51000000000002 L -2.3000000000000007 -73.87999999999997 z" stroke-linecap="round" />
</g>
		<g transform="matrix(0.6206733011 0.2259065951 -0.173718721 0.4772882455 -0.893938536 -39.0001211138)" id="i7Lk68X8kdHFmRSINDW6z"  >
<path style="stroke: rgb(20,10,246); stroke-width: 0; stroke-dasharray: none; stroke-linecap: butt; stroke-dashoffset: 0; stroke-linejoin: miter; stroke-miterlimit: 4; fill: rgb(255,255,255); fill-rule: nonzero; opacity: 1;"  transform=" translate(0, 0)" d="M -6.34 -69.12 L 22.31 -78.27000000000001 L 4.879999999999999 65.78 L -22.310000000000002 78.27 L -6.340000000000002 -69.11999999999999 z" stroke-linecap="round" />
</g>
		<g transform="matrix(0.4332355211 0.1576848259 -0.1735261834 0.4767592525 12.4796006409 -37.228627893)" id="T2rw5Vj3RZaGtoCinb8d2"  >
<path style="stroke: rgb(20,10,246); stroke-width: 0; stroke-dasharray: none; stroke-linecap: butt; stroke-dashoffset: 0; stroke-linejoin: miter; stroke-miterlimit: 4; fill: rgb(0,0,0); fill-rule: nonzero; opacity: 1;"  transform=" translate(0, 0)" d="M -2.3 -73.88 L 23.74 -76.50999999999999 L -0.33000000000000185 73.98000000000002 L -23.740000000000002 76.51000000000002 L -2.3000000000000007 -73.87999999999997 z" stroke-linecap="round" />
</g>
		<g transform="matrix(0.6206733011 0.2259065951 -0.173718721 0.4772882455 27.0639655246 -36.1629553092)" id="8eflk7q7HGytF5dM5ifha"  >
<path style="stroke: rgb(20,10,246); stroke-width: 0; stroke-dasharray: none; stroke-linecap: butt; stroke-dashoffset: 0; stroke-linejoin: miter; stroke-miterlimit: 4; fill: rgb(255,255,255); fill-rule: nonzero; opacity: 1;"  transform=" translate(0, 0)" d="M -6.34 -69.12 L 22.31 -78.27000000000001 L 4.879999999999999 65.78 L -22.310000000000002 78.27 L -6.340000000000002 -69.11999999999999 z" stroke-linecap="round" />
</g>
		<g transform="matrix(0.4332355211 0.1576848259 -0.1735261834 0.4767592525 41.4423355352 -34.5687849512)" id="RFDhLZxEQ0Rr6kpFBBxsX"  >
<path style="stroke: rgb(20,10,246); stroke-width: 0; stroke-dasharray: none; stroke-linecap: butt; stroke-dashoffset: 0; stroke-linejoin: miter; stroke-miterlimit: 4; fill: rgb(0,0,0); fill-rule: nonzero; opacity: 1;"  transform=" translate(0, 0)" d="M -2.3 -73.88 L 23.74 -76.50999999999999 L -0.33000000000000185 73.98000000000002 L -23.740000000000002 76.51000000000002 L -2.3000000000000007 -73.87999999999997 z" stroke-linecap="round" />
</g>
		<g transform="matrix(0.6206733011 0.2259065951 -0.173718721 0.4772882455 56.0267004189 -33.5031123674)" id="5ESGc_vLh9NxkUirM2Zz_"  >
<path style="stroke: rgb(20,10,246); stroke-width: 0; stroke-dasharray: none; stroke-linecap: butt; stroke-dashoffset: 0; stroke-linejoin: miter; stroke-miterlimit: 4; fill: rgb(255,255,255); fill-rule: nonzero; opacity: 1;"  transform=" translate(0, 0)" d="M -6.34 -69.12 L 22.31 -78.27000000000001 L 4.879999999999999 65.78 L -22.310000000000002 78.27 L -6.340000000000002 -69.11999999999999 z" stroke-linecap="round" />
</g>
		<g transform="matrix(0.4332355211 0.1576848259 -0.1735261834 0.4767592525 69.4002395959 -31.7316191466)" id="JElVADTzmJPEseaQVjv62"  >
<path style="stroke: rgb(20,10,246); stroke-width: 0; stroke-dasharray: none; stroke-linecap: butt; stroke-dashoffset: 0; stroke-linejoin: miter; stroke-miterlimit: 4; fill: rgb(0,0,0); fill-rule: nonzero; opacity: 1;"  transform=" translate(0, 0)" d="M -2.3 -73.88 L 23.74 -76.50999999999999 L -0.33000000000000185 73.98000000000002 L -23.740000000000002 76.51000000000002 L -2.3000000000000007 -73.87999999999997 z" stroke-linecap="round" />
</g>
		<g transform="matrix(0.6206733011 0.2259065951 -0.173718721 0.4772882455 82.802452061 -30.6659465627)" id="cfmh-UEqkQVWFcIXuxfjg"  >
<path style="stroke: rgb(20,10,246); stroke-width: 0; stroke-dasharray: none; stroke-linecap: butt; stroke-dashoffset: 0; stroke-linejoin: miter; stroke-miterlimit: 4; fill: rgb(255,255,255); fill-rule: nonzero; opacity: 1;"  transform=" translate(0, 0)" d="M -4.66 -69.91 L 20.63 -77.47 L 6.559999999999999 64.97999999999999 L -20.630000000000003 77.46999999999998 L -4.660000000000002 -69.91000000000001 z" stroke-linecap="round" />
</g>
		<g transform="matrix(0.4610394432 0 0 0.4610394432 -77.7332146366 -10.3575252873)" id="WXp1m3ItbV3SUp4VF2B0k"  >
<path style="stroke: rgb(0,0,0); stroke-width: 1; stroke-dasharray: none; stroke-linecap: butt; stroke-dashoffset: 0; stroke-linejoin: miter; stroke-miterlimit: 4; fill: rgb(0,0,0); fill-rule: nonzero; opacity: 1;"  transform=" translate(0, 0)" d="M -353.8 -30.24 L -349.34000000000003 -39.16 L 353.79999999999995 29.39 L 348.96 39.16 L -353.8 -30.24000000000001 z" stroke-linecap="round" />
</g>
		<g transform="matrix(0.4332355211 0.1576848259 -0.1735261834 0.4767592525 94.8460725721 -29.1899906582)" id="u6f539hKfeMr73iBo41J_"  >
<path style="stroke: rgb(20,10,246); stroke-width: 0; stroke-dasharray: none; stroke-linecap: butt; stroke-dashoffset: 0; stroke-linejoin: miter; stroke-miterlimit: 4; fill: rgb(0,0,0); fill-rule: nonzero; opacity: 1;"  transform=" translate(0, 0)" d="M 0.47 -72.93 L 20.97 -77.45 L 4.41 73.02999999999999 L -20.97 77.44999999999999 L 0.4700000000000024 -72.93 z" stroke-linecap="round" />
</g>
		<g transform="matrix(0.4610394432 0 0 0.4610394432 -31.1174413389 -130.9597803315)" id="w5puavXy-QLs03VMtvJxO"  >
<path style="stroke: rgb(0,0,0); stroke-width: 1; stroke-dasharray: none; stroke-linecap: butt; stroke-dashoffset: 0; stroke-linejoin: miter; stroke-miterlimit: 4; fill: rgb(227,227,227); fill-rule: nonzero; opacity: 1;"  transform=" translate(0.0030275154, 0.0002187556)" d="M -269.87 136.81 C -282.21 143.08 -298.63 148.77 -309.69 151.52 C -320.76 154.27 -349.26 153.60000000000002 -364.83 140.94 C -386.91999999999996 122.97999999999999 -382.28 92.55 -382.28 92.55 C -382.28 92.55 -341.96 26.61999999999999 -295.04999999999995 -28.60000000000001 C -248.14999999999995 -83.81 -192.87999999999994 -130.56 -192.87999999999994 -130.56 C -192.87999999999994 -130.56 -182.88999999999993 -194.09 -164.26999999999992 -203.74 C -145.63999999999993 -213.39000000000001 -118.36999999999992 -169.14000000000001 -118.36999999999992 -169.14000000000001 C -118.36999999999992 -169.14000000000001 -31.469999999999914 -187.25 44.71000000000009 -180.59 C 120.8800000000001 -173.94 186.3300000000001 -142.53 186.3300000000001 -142.53 C 186.3300000000001 -142.53 197.97000000000008 -188.44 214.2700000000001 -173.14 C 225.3700000000001 -162.72 292.6400000000001 -62.50999999999999 320.5800000000001 -14.659999999999997 C 326.6900000000001 -4.189999999999996 343.9600000000001 30.380000000000003 357.8200000000001 61.46000000000001 C 373.6900000000001 97.06 382.6800000000001 133.48000000000002 382.6800000000001 133.48000000000002 C 382.6800000000001 133.48000000000002 366.8200000000001 149.15 320.5800000000001 156.14000000000001 C 274.3400000000001 163.12 195.6400000000001 151.52 195.6400000000001 151.52 C 195.6400000000001 151.52 168.5100000000001 183.22 134.81000000000012 197.96 C 109.74000000000012 208.92000000000002 78.46000000000012 204.21 71.50000000000011 203.53 C 57.54000000000011 202.15 48.73000000000012 201.68 39.18000000000011 184.69 C 29.630000000000113 167.7 33.310000000000116 135.55 33.310000000000116 135.55 L -240.31999999999988 118.27000000000001 C -240.31999999999988 118.27000000000001 -252.32999999999987 127.89000000000001 -269.8699999999999 136.81 z" stroke-linecap="round" />
</g>
		<g transform="matrix(0.4610394432 0 0 0.4610394432 -118.1148612684 -137.7174747557)" id="VDiVhXXSab9oU6nw6bNfx"  >
<path style="stroke: rgb(245,191,4); stroke-width: 0; stroke-dasharray: none; stroke-linecap: butt; stroke-dashoffset: 0; stroke-linejoin: miter; stroke-miterlimit: 4; fill: rgb(0,0,0); fill-rule: nonzero; opacity: 1;"  transform=" translate(0, 0)" d="M 0 -11.11 C 6.13 -11.11 11.11 -6.129999999999999 11.11 0 C 11.11 6.13 6.129999999999999 11.11 0 11.11 C -6.13 11.11 -11.11 6.129999999999999 -11.11 0 C -11.11 -6.13 -6.129999999999999 -11.11 0 -11.11 z" stroke-linecap="round" />
</g>
		<g transform="matrix(0.4610394432 0 0 0.4610394432 -28.1267921601 -132.6801919498)" id="T8_Io8ximgHN7SNUh20q-"  >
<path style="stroke: rgb(245,191,4); stroke-width: 0; stroke-dasharray: none; stroke-linecap: butt; stroke-dashoffset: 0; stroke-linejoin: miter; stroke-miterlimit: 4; fill: rgb(0,0,0); fill-rule: nonzero; opacity: 1;"  transform=" translate(0, 0)" d="M 0 -11.11 C 6.13 -11.11 11.11 -6.129999999999999 11.11 0 C 11.11 6.13 6.129999999999999 11.11 0 11.11 C -6.13 11.11 -11.11 6.129999999999999 -11.11 0 C -11.11 -6.13 -6.129999999999999 -11.11 0 -11.11 z" stroke-linecap="round" />
</g>
		<g transform="matrix(0.4610394432 0 0 0.4610394432 -74.6844504171 -115.1784605949)" id="vRWUav_lMrl9CJ5phi-Gg"  >
<path style="stroke: rgb(0,0,0); stroke-width: 1; stroke-dasharray: none; stroke-linecap: butt; stroke-dashoffset: 0; stroke-linejoin: miter; stroke-miterlimit: 4; fill: rgb(0,0,0); fill-rule: nonzero; opacity: 1;"  transform=" translate(0.0020273451, -0.0005039503)" d="M 22.56 1.41 C 14.179999999999998 0.8799999999999999 4.889999999999997 -2.1900000000000004 0.16000000000000014 -2.4400000000000004 C -7.879999999999999 -2.8600000000000003 -17.23 3.05 -25.12 2.1999999999999993 C -40.8 0.5099999999999993 -50.790000000000006 -9.13 -52.91 -8.16 C -55.029999999999994 -7.19 -46.099999999999994 3.51 -33.599999999999994 7.209999999999999 C -21.099999999999994 10.919999999999998 -1.7899999999999956 3.309999999999999 -1.7899999999999956 3.309999999999999 C -1.7899999999999956 3.309999999999999 15.300000000000004 9.229999999999999 26.000000000000004 7.989999999999998 C 28.630000000000003 7.679999999999999 38.28 6.1099999999999985 44.27 3.429999999999999 C 51.21 0.32999999999999874 54.300000000000004 -3.9400000000000013 52.88 -4.570000000000001 C 50.24 -5.730000000000001 33.1 2.079999999999999 22.560000000000002 1.4099999999999993 z" stroke-linecap="round" />
</g>
		<g transform="matrix(0.4610394432 0 0 0.4610394432 -103.4486082921 -205.5469677394)" id="-FU3R4bbeBX8wTjqRwlK7"  >
<path style="stroke: rgb(0,0,0); stroke-width: 1; stroke-dasharray: none; stroke-linecap: butt; stroke-dashoffset: 0; stroke-linejoin: miter; stroke-miterlimit: 4; fill: rgb(234,190,190); fill-rule: nonzero; opacity: 1;"  transform=" translate(0, 0)" d="M -4.41 10.27 C -14.69 16.66 -22.78 23.33 -22.78 23.33 L -3.8900000000000006 -23.33 L 22.78 -4.439999999999998 C 22.78 -4.439999999999998 5.859999999999999 3.8800000000000026 -4.41 10.270000000000003 z" stroke-linecap="round" />
</g>
		<g transform="matrix(-0.3625783538 0 0 0.3625783538 69.7069650701 -195.0633576196)" id="ILFUmKd5ddFPzniSnW04D"  >
<path style="stroke: rgb(0,0,0); stroke-width: 1; stroke-dasharray: none; stroke-linecap: butt; stroke-dashoffset: 0; stroke-linejoin: miter; stroke-miterlimit: 4; fill: rgb(234,190,190); fill-rule: nonzero; opacity: 1;"  transform=" translate(0, 0)" d="M 5.93 11.87 C -6.880000000000001 18.009999999999998 -26.479999999999997 28.28 -26.479999999999997 28.28 L 12.850000000000001 -28.28 L 26.480000000000004 2.0299999999999976 C 26.480000000000004 2.0299999999999976 18.750000000000004 5.729999999999998 5.930000000000003 11.869999999999997 z" stroke-linecap="round" />
</g>
</g>
</g>
</svg>