<?xml version="1.0" encoding="UTF-8" standalone="no" ?>
<!DOCTYPE svg PUBLIC "-//W3C//DTD SVG 1.1//EN" "http://www.w3.org/Graphics/SVG/1.1/DTD/svg11.dtd">
<svg xmlns="http://www.w3.org/2000/svg" xmlns:xlink="http://www.w3.org/1999/xlink" version="1.1" width="512" height="512" viewBox="0 0 512 512" xml:space="preserve">
<desc>Created with Fabric.js 5.3.0</desc>
<defs>
</defs>
<g transform="matrix(2.3824545755 0 0 0.4204331532 267.1123138063 438.9536594286)" id="TZOmEnOjiYUgHK-mkVe_g"  >
<path style="stroke: rgb(231,222,181); stroke-width: 0; stroke-dasharray: none; stroke-linecap: butt; stroke-dashoffset: 0; stroke-linejoin: miter; stroke-miterlimit: 4; fill: rgb(86,79,79); fill-rule: nonzero; opacity: 1;" vector-effect="non-scaling-stroke"  transform=" translate(0, 0.000005)" d="M -8.23945 -85.9082 C 42.806200000000004 -85.9082 100.71346 -63.44774999999999 100.71346 -12.40209999999999 C 100.71346 38.64355000000001 42.8062 85.90819 -8.239450000000005 85.90819 C -59.28510000000001 85.90819 -100.71346000000001 57.61146000000001 -100.71346000000001 6.565809999999999 C -100.71346000000001 -44.47984 -59.285100000000014 -85.90820000000001 -8.239450000000005 -85.90820000000001 z" stroke-linecap="round" />
</g>
<g transform="matrix(0.4610394432 0 0 0.4610394432 444.1754092957 304.0684204906)" id="lDGw7TVnDhaquRbyqg62z"  >
<path style="stroke: rgb(0,0,0); stroke-width: 1; stroke-dasharray: none; stroke-linecap: butt; stroke-dashoffset: 0; stroke-linejoin: miter; stroke-miterlimit: 4; fill: rgb(148,149,131); fill-rule: nonzero; opacity: 1;" vector-effect="non-scaling-stroke"  transform=" translate(0.0000069196, 5.966e-7)" d="M -51.06573 -125.61015 C -51.06573 -125.61015 -21.918960000000002 -153.59696 11.491219999999998 -166.38394 C 40.77218 -177.59055 74.15641 -173.86933 82.93751999999999 -173.08724 C 103.11674 -171.28997 118.82158999999999 -155.50949 123.2378 -149.01336 C 137.80601 -127.58387 129.13387 -40.638000000000005 77.17178999999999 38.34778 C 25.891099999999987 116.2978 -61.789710000000014 162.63477 -84.32977000000002 170.67438 C -122.86152000000003 184.41792 -129.56886000000003 154.72419000000002 -129.56886000000003 154.72419000000002 L -92.96341000000004 93.51837000000002 C -92.96341000000004 93.51837000000002 -80.49804000000003 108.81040000000002 -51.06574000000004 93.51837000000002 C -36.87161000000004 86.14358000000001 21.28382999999996 43.79751000000002 51.414859999999955 -6.812579999999983 C 65.37028999999995 -30.253049999999984 92.81103999999996 -91.45614999999998 82.93751999999995 -112.64898999999998 C 72.67781999999995 -134.67073 24.568559999999948 -116.12844999999999 11.491219999999956 -110.09732999999999 C -23.43246000000004 -93.99093999999998 -51.065730000000045 -60.32674999999998 -51.065730000000045 -60.32674999999998 z" stroke-linecap="round" />
</g>
<g transform="matrix(0.4610394432 0 0 0.4610394432 213.7447760018 305.6717340752)" id="jUIkrbWKcV_H_NP2oENpt"  >
<path style="stroke: rgb(0,0,0); stroke-width: 1; stroke-dasharray: none; stroke-linecap: butt; stroke-dashoffset: 0; stroke-linejoin: miter; stroke-miterlimit: 4; fill: rgb(163,152,133); fill-rule: nonzero; opacity: 1;" vector-effect="non-scaling-stroke"  transform=" translate(0.0000187415, 0.0000023595)" d="M 342.86734 -238.76035 C 283.43996000000004 -228.64755 208.35723000000002 -231.45165999999998 208.35723000000002 -231.45165999999998 C 208.35723000000002 -231.45165999999998 191.48293 -204.71639 161.75483000000003 -194.15970999999996 C 132.02674000000002 -183.60302999999996 108.68357000000003 -183.28482999999997 90.77542000000003 -186.56380999999996 C 50.07806000000002 -194.01548999999997 57.54282000000003 -254.60556999999994 57.54282000000003 -254.60556999999994 L -216.60444999999996 -270.57230999999996 C -216.60444999999996 -270.57230999999996 -271.61261999999994 -232.82253999999995 -306.78585 -238.76035999999996 C -320.78664 -241.12391999999997 -339.62804 -244.28300999999996 -347.62690999999995 -254.60556999999997 C -359.72306 -270.21567999999996 -357.29738 -294.32358 -357.29738 -294.32358 L -410.81476999999995 -337.10037 C -410.81476999999995 -337.10037 -506.94782999999995 -64.63833 -410.81476999999995 103.01240000000001 C -362.4788 187.30765000000002 -302.49906 240.08533000000003 -206.36600999999996 297.70786 C -110.23294999999996 355.3304 95.12055000000004 344.87235 190.91733000000005 297.70786 C 286.71411000000006 250.54336999999998 325.72465000000005 207.97062999999997 372.87131000000005 147.5057 C 490.62599000000006 -3.5130100000000084 444.73615000000007 -277.22511000000003 444.73615000000007 -277.22511000000003 C 444.73615000000007 -277.22511000000003 402.29469000000006 -248.87316000000004 342.86732000000006 -238.76036000000002 z" stroke-linecap="round" />
</g>
<g transform="matrix(0.4610394432 0 0 0.4610394432 189.3245859645 223.2546781941)" id="aTEF3BcNa0S63aqe4OBK6"  >
<path style="stroke: rgb(0,0,0); stroke-width: 1; stroke-dasharray: none; stroke-linecap: butt; stroke-dashoffset: 0; stroke-linejoin: miter; stroke-miterlimit: 4; fill: rgb(220,204,204); fill-rule: nonzero; opacity: 1;" vector-effect="non-scaling-stroke"  transform=" translate(0.000005, 0.000005)" d="M 205.5172 -11.55538 C 178.84828 -1.8243600000000004 160.43659 -7.798769999999999 141.797 -11.55538 C 99.50822 -20.078249999999997 112.16722 -75.842 112.16722 -75.842 L -163.05083000000002 -94.92555 C -163.05083000000002 -94.92555 -208.95095000000003 -58.65863 -249.54165 -61.20583 C -264.0978 -62.119279999999996 -288.32959 -66.22856 -294.65052000000003 -75.842 C -305.95590000000004 -93.03622 -305.45519 -115.75883999999999 -305.45519 -115.75883999999999 L -394.42008 47.90020000000001 L 311.92527000000007 115.75883000000002 L 394.42007000000007 -54.553019999999975 L 270.6778700000001 -61.20582999999998 C 270.6778700000001 -61.20582999999998 239.3537200000001 -23.901739999999975 205.51720000000012 -11.555389999999974 z" stroke-linecap="round" />
</g>
<g transform="matrix(0.4610394432 0 0 0.4610394432 46.4865815224 153.3750319349)" id="aWc4QIEFt2ubIRPX4vRR5"  >
<path style="stroke: rgb(0,0,0); stroke-width: 1; stroke-dasharray: none; stroke-linecap: butt; stroke-dashoffset: 0; stroke-linejoin: miter; stroke-miterlimit: 4; fill: rgb(135,124,100); fill-rule: nonzero; opacity: 1;" vector-effect="non-scaling-stroke"  transform=" translate(0, 0.0000067653)" d="M 47.78383 -32.04769 C 47.78383 -32.04769 18.06512 -35.60134 -5.884979999999999 -29.946460000000002 C -29.835079999999998 -24.29157 -47.78383 -6.921280000000003 -47.78383 -6.921280000000003 L 2.5447500000000005 33.149809999999995 z" stroke-linecap="round" />
</g>
<g transform="matrix(0.4610394432 0 0 0.4610394432 401.3156129966 178.4021085818)" id="6MuURj4n9Vj2yj59Gt1Zx"  >
<path style="stroke: rgb(0,0,0); stroke-width: 1; stroke-dasharray: none; stroke-linecap: butt; stroke-dashoffset: 0; stroke-linejoin: miter; stroke-miterlimit: 4; fill: rgb(146,132,98); fill-rule: nonzero; opacity: 1;" vector-effect="non-scaling-stroke"  transform=" translate(0, 0.000005)" d="M -18.6798 -31.19543 C -18.6798 -31.19543 5.1610900000000015 -22.50161 18.9983 -15.177180000000003 C 32.835499999999996 -7.8527600000000035 37.419740000000004 -1.1504400000000032 37.419740000000004 -1.1504400000000032 C 37.419740000000004 -1.1504400000000032 25.603100000000005 6.6938799999999965 7.640520000000006 15.342519999999997 C -10.322059999999993 23.991169999999997 -37.41973999999999 31.19542 -37.41973999999999 31.19542 C -37.41973999999999 31.19542 -21.04374999999999 23.91745 -14.19199999999999 19.133129999999998 C -7.34023999999999 14.348809999999997 -3.60245999999999 8.853019999999997 -3.60245999999999 8.853019999999997 z" stroke-linecap="round" />
</g>
<g transform="matrix(0.4332353627 0.1576847765 -0.1499860469 0.4120832771 37.65070147 200.6288009945)" id="rLn9H8G1Q1sJ61ccZxHq6"  >
<path style="stroke: rgb(20,10,246); stroke-width: 0; stroke-dasharray: none; stroke-linecap: butt; stroke-dashoffset: 0; stroke-linejoin: miter; stroke-miterlimit: 4; fill: rgb(0,0,0); fill-rule: nonzero; opacity: 1;" vector-effect="non-scaling-stroke"  transform=" translate(-0.000005, 0)" d="M -0.49197 -74.47592 L 21.9314 -75.90781 L 1.4774700000000003 73.38163999999999 L -21.93139 75.90780999999998 z" stroke-linecap="round" />
</g>
<g transform="matrix(0.6206733011 0.2259065951 -0.1499861017 0.4120834064 52.7554915693 202.1841067132)" id="3BYGxlI1jormYkB03bNGG"  >
<path style="stroke: rgb(20,10,246); stroke-width: 0; stroke-dasharray: none; stroke-linecap: butt; stroke-dashoffset: 0; stroke-linejoin: miter; stroke-miterlimit: 4; fill: rgb(255,255,255); fill-rule: nonzero; opacity: 1;" vector-effect="non-scaling-stroke"  transform=" translate(0, 0)" d="M -6.33973 -69.1186 L 22.31321 -78.26866 L 4.878220000000002 65.77988 L -22.313209999999998 78.26866000000001 z" stroke-linecap="round" />
</g>
<g transform="matrix(0.4332355211 0.1576848259 -0.1499861017 0.4120834064 66.1996781469 205.2391951243)" id="pGy8DjJydTcsTyCbXqGIp"  >
<path style="stroke: rgb(20,10,246); stroke-width: 0; stroke-dasharray: none; stroke-linecap: butt; stroke-dashoffset: 0; stroke-linejoin: miter; stroke-miterlimit: 4; fill: rgb(0,0,0); fill-rule: nonzero; opacity: 1;" vector-effect="non-scaling-stroke"  transform=" translate(-0.000005, 0)" d="M -0.49197 -74.47592 L 21.9314 -75.90781 L 1.4774700000000003 73.38163999999999 L -21.93139 75.90780999999998 z" stroke-linecap="round" />
</g>
<g transform="matrix(0.6206733011 0.2259065951 -0.1499861017 0.4120834064 81.3044718666 206.7945011457)" id="p7F57Jl0XaRcYoSrI7dui"  >
<path style="stroke: rgb(20,10,246); stroke-width: 0; stroke-dasharray: none; stroke-linecap: butt; stroke-dashoffset: 0; stroke-linejoin: miter; stroke-miterlimit: 4; fill: rgb(255,255,255); fill-rule: nonzero; opacity: 1;" vector-effect="non-scaling-stroke"  transform=" translate(0, 0)" d="M -6.33973 -69.1186 L 22.31321 -78.26866 L 4.878220000000002 65.77988 L -22.313209999999998 78.26866000000001 z" stroke-linecap="round" />
</g>
<g transform="matrix(0.4332355211 0.1576848259 -0.1499861017 0.4120834064 94.866874909 207.6034997331)" id="e3UkozCeBw-1gTytorkhr"  >
<path style="stroke: rgb(20,10,246); stroke-width: 0; stroke-dasharray: none; stroke-linecap: butt; stroke-dashoffset: 0; stroke-linejoin: miter; stroke-miterlimit: 4; fill: rgb(0,0,0); fill-rule: nonzero; opacity: 1;" vector-effect="non-scaling-stroke"  transform=" translate(-0.000005, 0)" d="M -0.49197 -74.47592 L 21.9314 -75.90781 L -0.6042400000000008 71.30949 L -21.93139 75.90781 z" stroke-linecap="round" />
</g>
<g transform="matrix(0.6206733011 0.2259065951 -0.1499861017 0.4120834064 109.6761305241 208.8632676498)" id="JAH2EankUJRvx9TmMceBm"  >
<path style="stroke: rgb(20,10,246); stroke-width: 0; stroke-dasharray: none; stroke-linecap: butt; stroke-dashoffset: 0; stroke-linejoin: miter; stroke-miterlimit: 4; fill: rgb(255,255,255); fill-rule: nonzero; opacity: 1;" vector-effect="non-scaling-stroke"  transform=" translate(-0.000005, -0.000005)" d="M -6.33973 -69.1186 L 22.31321 -78.26866 L 7.400970000000001 64.3969 L -22.3132 78.26867 z" stroke-linecap="round" />
</g>
<g transform="matrix(0.4332355211 0.1576848259 -0.1735261834 0.4767592525 126.9759598664 207.0089542575)" id="ZaOfnM6Z_WcD6pyAJJM95"  >
<path style="stroke: rgb(20,10,246); stroke-width: 0; stroke-dasharray: none; stroke-linecap: butt; stroke-dashoffset: 0; stroke-linejoin: miter; stroke-miterlimit: 4; fill: rgb(0,0,0); fill-rule: nonzero; opacity: 1;" vector-effect="non-scaling-stroke"  transform=" translate(-0.000005, 0.000005)" d="M -2.29907 -73.87824 L 23.7385 -76.50550000000001 L -0.0018799999999998818 71.39135999999999 L -23.73849 76.50549 z" stroke-linecap="round" />
</g>
<g transform="matrix(0.6206733011 0.2259065951 -0.173718721 0.4772882455 141.5603217163 208.0746284368)" id="kIbmIhmQiCuY9rpuJ98pI"  >
<path style="stroke: rgb(20,10,246); stroke-width: 0; stroke-dasharray: none; stroke-linecap: butt; stroke-dashoffset: 0; stroke-linejoin: miter; stroke-miterlimit: 4; fill: rgb(255,255,255); fill-rule: nonzero; opacity: 1;" vector-effect="non-scaling-stroke"  transform=" translate(0, 0)" d="M -6.33973 -69.1186 L 22.31321 -78.26866 L 4.878220000000002 65.77988 L -22.313209999999998 78.26866000000001 z" stroke-linecap="round" />
</g>
<g transform="matrix(0.4332355211 0.1576848259 -0.1735261834 0.4767592525 154.6383258224 209.8461200621)" id="o5goH7_tDR8rv1xFjIIXS"  >
<path style="stroke: rgb(20,10,246); stroke-width: 0; stroke-dasharray: none; stroke-linecap: butt; stroke-dashoffset: 0; stroke-linejoin: miter; stroke-miterlimit: 4; fill: rgb(0,0,0); fill-rule: nonzero; opacity: 1;" vector-effect="non-scaling-stroke"  transform=" translate(-0.000005, 0.000005)" d="M -2.29907 -73.87824 L 23.7385 -76.50550000000001 L -0.0018799999999998818 71.39135999999999 L -23.73849 76.50549 z" stroke-linecap="round" />
</g>
<g transform="matrix(0.6206733011 0.2259065951 -0.173718721 0.4772882455 169.5182257769 210.9117942414)" id="CA20l3tLO8RPfqivYC_vt"  >
<path style="stroke: rgb(20,10,246); stroke-width: 0; stroke-dasharray: none; stroke-linecap: butt; stroke-dashoffset: 0; stroke-linejoin: miter; stroke-miterlimit: 4; fill: rgb(255,255,255); fill-rule: nonzero; opacity: 1;" vector-effect="non-scaling-stroke"  transform=" translate(0, 0)" d="M -6.33973 -69.1186 L 22.31321 -78.26866 L 4.878220000000002 65.77988 L -22.313209999999998 78.26866000000001 z" stroke-linecap="round" />
</g>
<g transform="matrix(0.4332355211 0.1576848259 -0.1735261834 0.4767592525 183.6010606591 211.9148864838)" id="iqW9b65NHvK5frSaTaOBQ"  >
<path style="stroke: rgb(20,10,246); stroke-width: 0; stroke-dasharray: none; stroke-linecap: butt; stroke-dashoffset: 0; stroke-linejoin: miter; stroke-miterlimit: 4; fill: rgb(0,0,0); fill-rule: nonzero; opacity: 1;" vector-effect="non-scaling-stroke"  transform=" translate(-0.000005, 0.000005)" d="M -2.29907 -73.87824 L 23.7385 -76.50550000000001 L -0.32963000000000164 73.97932 L -23.738490000000002 76.50549 z" stroke-linecap="round" />
</g>
<g transform="matrix(0.6206733011 0.2259065951 -0.173718721 0.4772882455 198.185422509 212.980560663)" id="o6z3SSQryvIG1Z_Knr74b"  >
<path style="stroke: rgb(20,10,246); stroke-width: 0; stroke-dasharray: none; stroke-linecap: butt; stroke-dashoffset: 0; stroke-linejoin: miter; stroke-miterlimit: 4; fill: rgb(255,255,255); fill-rule: nonzero; opacity: 1;" vector-effect="non-scaling-stroke"  transform=" translate(0, 0)" d="M -6.33973 -69.1186 L 22.31321 -78.26866 L 4.878220000000002 65.77988 L -22.313209999999998 78.26866000000001 z" stroke-linecap="round" />
</g>
<g transform="matrix(0.4332355211 0.1576848259 -0.1735261834 0.4767592525 211.5589647197 214.7520522884)" id="pRnOf5iK4w7Nvi1w1tguk"  >
<path style="stroke: rgb(20,10,246); stroke-width: 0; stroke-dasharray: none; stroke-linecap: butt; stroke-dashoffset: 0; stroke-linejoin: miter; stroke-miterlimit: 4; fill: rgb(0,0,0); fill-rule: nonzero; opacity: 1;" vector-effect="non-scaling-stroke"  transform=" translate(-0.000005, 0.000005)" d="M -2.29907 -73.87824 L 23.7385 -76.50550000000001 L -0.32963000000000164 73.97932 L -23.738490000000002 76.50549 z" stroke-linecap="round" />
</g>
<g transform="matrix(0.6206733011 0.2259065951 -0.173718721 0.4772882455 226.1433265696 215.8177264677)" id="dCkE-OazHzwIoNT7EEtSj"  >
<path style="stroke: rgb(20,10,246); stroke-width: 0; stroke-dasharray: none; stroke-linecap: butt; stroke-dashoffset: 0; stroke-linejoin: miter; stroke-miterlimit: 4; fill: rgb(255,255,255); fill-rule: nonzero; opacity: 1;" vector-effect="non-scaling-stroke"  transform=" translate(0, 0)" d="M -6.33973 -69.1186 L 22.31321 -78.26866 L 4.878220000000002 65.77988 L -22.313209999999998 78.26866000000001 z" stroke-linecap="round" />
</g>
<g transform="matrix(0.4332355211 0.1576848259 -0.1735261834 0.4767592525 240.521699614 215.934204707)" id="-rS5CS_chJ3L6Vp51tvIG"  >
<path style="stroke: rgb(20,10,246); stroke-width: 0; stroke-dasharray: none; stroke-linecap: butt; stroke-dashoffset: 0; stroke-linejoin: miter; stroke-miterlimit: 4; fill: rgb(0,0,0); fill-rule: nonzero; opacity: 1;" vector-effect="non-scaling-stroke"  transform=" translate(-0.000005, 0.000005)" d="M -2.29907 -73.87824 L 23.7385 -76.50550000000001 L -0.32963000000000164 73.97932 L -23.738490000000002 76.50549 z" stroke-linecap="round" />
</g>
<g transform="matrix(0.6206733011 0.2259065951 -0.173718721 0.4772882455 255.106061464 216.9998788862)" id="9S1KK5IrrS55pXtNZw0iM"  >
<path style="stroke: rgb(20,10,246); stroke-width: 0; stroke-dasharray: none; stroke-linecap: butt; stroke-dashoffset: 0; stroke-linejoin: miter; stroke-miterlimit: 4; fill: rgb(255,255,255); fill-rule: nonzero; opacity: 1;" vector-effect="non-scaling-stroke"  transform=" translate(0, 0)" d="M -6.33973 -69.1186 L 22.31321 -78.26866 L 4.878220000000002 65.77988 L -22.313209999999998 78.26866000000001 z" stroke-linecap="round" />
</g>
<g transform="matrix(0.4332355211 0.1576848259 -0.1735261834 0.4767592525 268.4796036747 218.7713705116)" id="5V7fXeVQEdAFRyFnCUDjm"  >
<path style="stroke: rgb(20,10,246); stroke-width: 0; stroke-dasharray: none; stroke-linecap: butt; stroke-dashoffset: 0; stroke-linejoin: miter; stroke-miterlimit: 4; fill: rgb(0,0,0); fill-rule: nonzero; opacity: 1;" vector-effect="non-scaling-stroke"  transform=" translate(-0.000005, 0.000005)" d="M -2.29907 -73.87824 L 23.7385 -76.50550000000001 L -0.32963000000000164 73.97932 L -23.738490000000002 76.50549 z" stroke-linecap="round" />
</g>
<g transform="matrix(0.6206733011 0.2259065951 -0.173718721 0.4772882455 283.0639655246 219.8370446908)" id="lNDP2yTJprEBS3XfAdhVN"  >
<path style="stroke: rgb(20,10,246); stroke-width: 0; stroke-dasharray: none; stroke-linecap: butt; stroke-dashoffset: 0; stroke-linejoin: miter; stroke-miterlimit: 4; fill: rgb(255,255,255); fill-rule: nonzero; opacity: 1;" vector-effect="non-scaling-stroke"  transform=" translate(0, 0)" d="M -6.33973 -69.1186 L 22.31321 -78.26866 L 4.878220000000002 65.77988 L -22.313209999999998 78.26866000000001 z" stroke-linecap="round" />
</g>
<g transform="matrix(0.4332355211 0.1576848259 -0.1735261834 0.4767592525 297.442338569 221.4312134534)" id="K7Ym8_ZgNA2OiRqCqtiRw"  >
<path style="stroke: rgb(20,10,246); stroke-width: 0; stroke-dasharray: none; stroke-linecap: butt; stroke-dashoffset: 0; stroke-linejoin: miter; stroke-miterlimit: 4; fill: rgb(0,0,0); fill-rule: nonzero; opacity: 1;" vector-effect="non-scaling-stroke"  transform=" translate(-0.000005, 0.000005)" d="M -2.29907 -73.87824 L 23.7385 -76.50550000000001 L -0.32963000000000164 73.97932 L -23.738490000000002 76.50549 z" stroke-linecap="round" />
</g>
<g transform="matrix(0.6206733011 0.2259065951 -0.173718721 0.4772882455 312.0267004189 222.4968876326)" id="ELqGHOBz9jQtKz1BkwQHg"  >
<path style="stroke: rgb(20,10,246); stroke-width: 0; stroke-dasharray: none; stroke-linecap: butt; stroke-dashoffset: 0; stroke-linejoin: miter; stroke-miterlimit: 4; fill: rgb(255,255,255); fill-rule: nonzero; opacity: 1;" vector-effect="non-scaling-stroke"  transform=" translate(0, 0)" d="M -6.33973 -69.1186 L 22.31321 -78.26866 L 4.878220000000002 65.77988 L -22.313209999999998 78.26866000000001 z" stroke-linecap="round" />
</g>
<g transform="matrix(0.4332355211 0.1576848259 -0.1735261834 0.4767592525 325.4002426297 224.268379258)" id="ZC6c6jI07ZRLptb_0VCy9"  >
<path style="stroke: rgb(20,10,246); stroke-width: 0; stroke-dasharray: none; stroke-linecap: butt; stroke-dashoffset: 0; stroke-linejoin: miter; stroke-miterlimit: 4; fill: rgb(0,0,0); fill-rule: nonzero; opacity: 1;" vector-effect="non-scaling-stroke"  transform=" translate(-0.000005, 0.000005)" d="M -2.29907 -73.87824 L 23.7385 -76.50550000000001 L -0.32963000000000164 73.97932 L -23.738490000000002 76.50549 z" stroke-linecap="round" />
</g>
<g transform="matrix(0.6206733011 0.2259065951 -0.173718721 0.4772882455 338.802452061 225.3340534373)" id="PUY7ue7qrqISyIdXHNDvD"  >
<path style="stroke: rgb(20,10,246); stroke-width: 0; stroke-dasharray: none; stroke-linecap: butt; stroke-dashoffset: 0; stroke-linejoin: miter; stroke-miterlimit: 4; fill: rgb(255,255,255); fill-rule: nonzero; opacity: 1;" vector-effect="non-scaling-stroke"  transform=" translate(0, 0)" d="M -4.6579 -69.91463 L 20.63138 -77.47263000000001 L 6.56005 64.98384999999999 L -20.63138 77.47263 z" stroke-linecap="round" />
</g>
<g transform="matrix(0.4610394432 0 0 0.4610394432 178.2667876686 245.6424770179)" id="fX0PakGuDUm3Q2lgW-p5r"  >
<path style="stroke: rgb(0,0,0); stroke-width: 1; stroke-dasharray: none; stroke-linecap: butt; stroke-dashoffset: 0; stroke-linejoin: miter; stroke-miterlimit: 4; fill: rgb(0,0,0); fill-rule: nonzero; opacity: 1;" vector-effect="non-scaling-stroke"  transform=" translate(-0.000005, -0.000005)" d="M -353.79611 -30.23544 L -349.33514 -39.15737 L 353.79612 29.389480000000006 L 348.96340999999995 39.15738 z" stroke-linecap="round" />
</g>
<g transform="matrix(0.4332355211 0.1576848259 -0.1735261834 0.4767592525 350.8460734397 226.810006958)" id="SCqmmBZ92u2QF9GqC-9Ef"  >
<path style="stroke: rgb(20,10,246); stroke-width: 0; stroke-dasharray: none; stroke-linecap: butt; stroke-dashoffset: 0; stroke-linejoin: miter; stroke-miterlimit: 4; fill: rgb(0,0,0); fill-rule: nonzero; opacity: 1;" vector-effect="non-scaling-stroke"  transform=" translate(0, 0.000005)" d="M 0.46694 -72.93341 L 20.97248 -77.45033 L 4.407360000000001 73.03248 L -20.97248 77.45032 z" stroke-linecap="round" />
</g>
<g transform="matrix(0.4610394432 0 0 0.4610394432 224.883959424 125.0403243155)" id="LPvx-2sgrcF56z0Owqqq2"  >
<path style="stroke: rgb(0,0,0); stroke-width: 1; stroke-dasharray: none; stroke-linecap: butt; stroke-dashoffset: 0; stroke-linejoin: miter; stroke-miterlimit: 4; fill: rgb(227,227,227); fill-rule: nonzero; opacity: 1;" vector-effect="non-scaling-stroke"  transform=" translate(-0.0000107558, -0.0000082249)" d="M -269.87466 136.80799 C -282.2076 143.07736 -298.63281 148.77479 -309.6893 151.52051999999998 C -320.76371 154.27069999999998 -349.25724 153.60170999999997 -364.82631 140.94308999999998 C -386.91958 122.97988999999998 -382.27551 92.54683999999997 -382.27551 92.54683999999997 C -382.27551 92.54683999999997 -341.95541000000003 26.62208999999997 -295.05313 -28.596200000000024 C -248.15084000000002 -83.81450000000002 -192.88065 -130.55848000000003 -192.88065 -130.55848000000003 C -192.88065 -130.55848000000003 -182.89451 -194.09278000000003 -164.26665 -203.73935000000003 C -145.63879 -213.38592000000003 -118.36921 -169.14476000000002 -118.36921 -169.14476000000002 C -118.36921 -169.14476000000002 -31.46687 -187.24637 44.70777 -180.59356000000002 C 120.88241 -173.94075000000004 186.32934 -142.53353000000004 186.32934 -142.53353000000004 C 186.32934 -142.53353000000004 197.97175000000001 -188.43790000000004 214.27113 -173.13644000000005 C 225.36557 -162.72125000000005 292.64246 -62.50909000000004 320.5802 -14.657740000000047 C 326.68905 -4.194590000000046 343.95931 30.379689999999954 357.81812 61.45831999999996 C 373.69427 97.06086999999997 382.68236 133.47552999999996 382.68236 133.47552999999996 C 382.68236 133.47552999999996 366.81721000000005 149.15045999999995 320.58021 156.13590999999997 C 274.3432 163.12135999999998 195.64328 151.52052999999998 195.64328 151.52052999999998 C 195.64328 151.52052999999998 168.50842 183.22043999999997 134.81174000000001 197.95627 C 109.73996000000001 208.92037 78.45895000000002 204.21014 71.49734000000001 203.52539 C 57.53594000000001 202.15213999999997 48.72616000000001 201.68487 39.18053000000001 184.69197 C 29.634890000000013 167.69907 33.31480000000001 135.55379 33.31480000000001 135.55379 L -240.31695999999997 118.26522 C -240.31695999999997 118.26522 -252.32525999999996 127.88689 -269.87463999999994 136.808 z" stroke-linecap="round" />
</g>
<g transform="matrix(0.4610394432 0 0 0.4610394432 137.8851387316 118.2825252443)" id="XcofseE6KSNM3WZeS-ub5"  >
<path style="stroke: rgb(245,191,4); stroke-width: 0; stroke-dasharray: none; stroke-linecap: butt; stroke-dashoffset: 0; stroke-linejoin: miter; stroke-miterlimit: 4; fill: rgb(0,0,0); fill-rule: nonzero; opacity: 1;" vector-effect="non-scaling-stroke"  transform=" translate(0, 0)" d="M 0 -11.11111 C 6.13333 -11.11111 11.11111 -6.13333 11.11111 0 C 11.11111 6.13333 6.13333 11.11111 0 11.11111 C -6.13333 11.11111 -11.11111 6.13333 -11.11111 0 C -11.11111 -6.13333 -6.13333 -11.11111 0 -11.11111 z" stroke-linecap="round" />
</g>
<g transform="matrix(0.4610394432 0 0 0.4610394432 227.8732078399 123.3198080502)" id="Vx4UK6pnNe56NF-VwKvFG"  >
<path style="stroke: rgb(245,191,4); stroke-width: 0; stroke-dasharray: none; stroke-linecap: butt; stroke-dashoffset: 0; stroke-linejoin: miter; stroke-miterlimit: 4; fill: rgb(0,0,0); fill-rule: nonzero; opacity: 1;" vector-effect="non-scaling-stroke"  transform=" translate(0, 0)" d="M 0 -11.11111 C 6.13333 -11.11111 11.11111 -6.13333 11.11111 0 C 11.11111 6.13333 6.13333 11.11111 0 11.11111 C -6.13333 11.11111 -11.11111 6.13333 -11.11111 0 C -11.11111 -6.13333 -6.13333 -11.11111 0 -11.11111 z" stroke-linecap="round" />
</g>
<g transform="matrix(0.4610394432 0 0 0.4610394432 181.3164835689 140.821307778)" id="NGcN0U5MUN-fA7Lwqo9dT"  >
<path style="stroke: rgb(0,0,0); stroke-width: 1; stroke-dasharray: none; stroke-linecap: butt; stroke-dashoffset: 0; stroke-linejoin: miter; stroke-miterlimit: 4; fill: rgb(0,0,0); fill-rule: nonzero; opacity: 1;" vector-effect="non-scaling-stroke"  transform=" translate(0.0000015184, -0.0000015483)" d="M 22.5645 1.40968 C 14.180489999999999 0.87885 4.88916 -2.19384 0.16170999999999935 -2.4401599999999997 C -7.881350000000001 -2.8592299999999997 -17.22912 3.0529 -25.11786 2.2014400000000007 C -40.79826 0.5090000000000008 -50.78715 -9.133769999999998 -52.90818 -8.15991 C -55.02921 -7.18606 -46.10199 3.5084 -33.60199 7.2120999999999995 C -21.10199 10.915799999999999 -1.7929400000000015 3.3091799999999996 -1.7929400000000015 3.3091799999999996 C -1.7929400000000015 3.3091799999999996 15.30294 9.23134 25.996699999999997 7.98788 C 28.626379999999997 7.682099999999999 38.28158 6.107799999999999 44.27144 3.43192 C 51.21197 0.33133999999999997 54.30204 -3.94233 52.88297 -4.56561 C 50.23921 -5.726800000000001 33.10367 2.0769699999999993 22.56449 1.4096899999999994 z" stroke-linecap="round" />
</g>
<g transform="matrix(0.4610394432 0 0 0.4610394432 152.5513963183 50.4530299554)" id="AexRs6-eHiEBxTbl4TZS3"  >
<path style="stroke: rgb(0,0,0); stroke-width: 1; stroke-dasharray: none; stroke-linecap: butt; stroke-dashoffset: 0; stroke-linejoin: miter; stroke-miterlimit: 4; fill: rgb(234,190,190); fill-rule: nonzero; opacity: 1;" vector-effect="non-scaling-stroke"  transform=" translate(-0.00001, 0.000005)" d="M -4.414 10.26636 C -14.69178 16.655250000000002 -22.777769999999997 23.33333 -22.777769999999997 23.33333 L -3.888879999999997 -23.333340000000003 L 22.777790000000003 -4.444450000000003 C 22.777790000000003 -4.444450000000003 5.863790000000002 3.877469999999997 -4.413989999999998 10.266359999999997 z" stroke-linecap="round" />
</g>
<g transform="matrix(-0.3625783538 0 0 0.3625783538 325.7069632572 60.9366423804)" id="1hRQzqiyJUb4AwAtPuSxa"  >
<path style="stroke: rgb(0,0,0); stroke-width: 1; stroke-dasharray: none; stroke-linecap: butt; stroke-dashoffset: 0; stroke-linejoin: miter; stroke-miterlimit: 4; fill: rgb(234,190,190); fill-rule: nonzero; opacity: 1;" vector-effect="non-scaling-stroke"  transform=" translate(-0.000005, 0)" d="M 5.93431 11.86902 C -6.8812999999999995 18.00882 -26.477149999999998 28.278280000000002 -26.477149999999998 28.278280000000002 L 12.852920000000001 -28.278279999999995 L 26.47716 2.0271900000000045 C 26.47716 2.0271900000000045 18.749920000000003 5.729220000000005 5.93431 11.869020000000004 z" stroke-linecap="round" />
</g>
</svg>